# xmcd CD database file
# Copyright (C) 1993-1998 Ti Kan
#
# Track frame offsets:
#  182
#  33440
#  48360
#  91587
#  122850
#  142415
#  161812
#
# Disc length: 2444 seconds
#
# Revision: 1
# Processed by: cddbd v1.4b41PL1 Copyright (c) Steve Scherf et al.
# Submitted via: CDWizzard Release:4.61
#
DISCID=5e098a07
DTITLE=Original Analog Recordings - Baby Boomers - Progressive Seventies
DYEAR=1900
DGENRE=
TTITLE0=21st Century Schizoid Man Including Mirrors
TTITLE1=I Wouldn't Want To Be Like You 
TTITLE2=Starship Trooper: Life Seeker/Disillusion/Wurm
TTITLE3=Communion With The Sun
TTITLE4=Bringing Home The Bacon
TTITLE5=In Every Dream Home A Heartache
TTITLE6=Karn Earn 9 - 1st Impression, Part 2
EXTD=
EXTT0=
EXTT1=
EXTT2=
EXTT3=
EXTT4=
EXTT5=
EXTT6=
PLAYORDER=
